<svg width="27" height="27" viewBox="0 0 27 27" fill="none" xmlns="http://www.w3.org/2000/svg">
<mask id="path-1-inside-1_224_3937" fill="white">
<path d="M26.6744 13.3372C26.6744 15.0887 26.3294 16.823 25.6592 18.4411C24.9889 20.0593 24.0065 21.5296 22.768 22.768C21.5296 24.0065 20.0593 24.9889 18.4411 25.6592C16.823 26.3294 15.0887 26.6744 13.3372 26.6744C11.5857 26.6744 9.85142 26.3294 8.23328 25.6592C6.61513 24.9889 5.14485 24.0065 3.90638 22.768C2.6679 21.5296 1.68549 20.0593 1.01523 18.4411C0.344977 16.823 -1.53118e-07 15.0887 0 13.3372L13.3372 13.3372H26.6744Z"/>
</mask>
<path d="M26.6744 13.3372C26.6744 15.0887 26.3294 16.823 25.6592 18.4411C24.9889 20.0593 24.0065 21.5296 22.768 22.768C21.5296 24.0065 20.0593 24.9889 18.4411 25.6592C16.823 26.3294 15.0887 26.6744 13.3372 26.6744C11.5857 26.6744 9.85142 26.3294 8.23328 25.6592C6.61513 24.9889 5.14485 24.0065 3.90638 22.768C2.6679 21.5296 1.68549 20.0593 1.01523 18.4411C0.344977 16.823 -1.53118e-07 15.0887 0 13.3372L13.3372 13.3372H26.6744Z" fill="white" stroke="#7A7A7A" stroke-width="2" mask="url(#path-1-inside-1_224_3937)"/>
<mask id="path-2-inside-2_224_3937" fill="white">
<path d="M26.6744 13.3374C26.6744 11.5859 26.3294 9.85158 25.6592 8.23344C24.9889 6.61529 24.0065 5.14501 22.768 3.90654C21.5296 2.66806 20.0593 1.68565 18.4411 1.01539C16.823 0.345137 15.0887 0.000160217 13.3372 0.000160217C11.5857 0.000160217 9.85142 0.345137 8.23328 1.01539C6.61513 1.68565 5.14485 2.66806 3.90638 3.90654C2.6679 5.14501 1.68549 6.6153 1.01523 8.23344C0.344977 9.85158 -1.53118e-07 11.5859 0 13.3374L13.3372 13.3374H26.6744Z"/>
</mask>
<path d="M26.6744 13.3374C26.6744 11.5859 26.3294 9.85158 25.6592 8.23344C24.9889 6.61529 24.0065 5.14501 22.768 3.90654C21.5296 2.66806 20.0593 1.68565 18.4411 1.01539C16.823 0.345137 15.0887 0.000160217 13.3372 0.000160217C11.5857 0.000160217 9.85142 0.345137 8.23328 1.01539C6.61513 1.68565 5.14485 2.66806 3.90638 3.90654C2.6679 5.14501 1.68549 6.6153 1.01523 8.23344C0.344977 9.85158 -1.53118e-07 11.5859 0 13.3374L13.3372 13.3374H26.6744Z" fill="#959595" stroke="#7A7A7A" stroke-width="2" mask="url(#path-2-inside-2_224_3937)"/>
<circle cx="13.3373" cy="13.3373" r="3.94574" fill="#D0D0D0" stroke="#7A7A7A"/>
</svg>
